<?xml version="1.0" encoding="utf-8" standalone="no"?>
<!DOCTYPE svg PUBLIC "-//W3C//DTD SVG 1.1//EN"
  "http://www.w3.org/Graphics/SVG/1.1/DTD/svg11.dtd">
<svg xmlns:xlink="http://www.w3.org/1999/xlink" width="583.56pt" height="204.10875pt" viewBox="0 0 583.56 204.10875" xmlns="http://www.w3.org/2000/svg" version="1.1">
 <metadata>
  <rdf:RDF xmlns:dc="http://purl.org/dc/elements/1.1/" xmlns:cc="http://creativecommons.org/ns#" xmlns:rdf="http://www.w3.org/1999/02/22-rdf-syntax-ns#">
   <cc:Work>
    <dc:type rdf:resource="http://purl.org/dc/dcmitype/StillImage"/>
    <dc:date>2026-09-07T14:36:51.449963</dc:date>
    <dc:format>image/svg+xml</dc:format>
    <dc:creator>
     <cc:Agent>
      <dc:title>Matplotlib v3.8.0, https://matplotlib.org/</dc:title>
     </cc:Agent>
    </dc:creator>
   </cc:Work>
  </rdf:RDF>
 </metadata>
 <defs>
  <style type="text/css">*{stroke-linejoin: round; stroke-linecap: butt}</style>
 </defs>
 <g id="figure_1">
  <g id="patch_1">
   <path d="M 0 204.10875 
L 583.56 204.10875 
L 583.56 0 
L 0 0 
z
" style="fill: #ffffff"/>
  </g>
  <g id="axes_1">
   <g id="patch_2">
    <path d="M 18.918 163.5408 
L 162.882 163.5408 
Q 167.904 163.5408 167.904 158.5512 
L 167.904 22.1688 
Q 167.904 17.1792 162.882 17.1792 
L 18.918 17.1792 
Q 13.896 17.1792 13.896 22.1688 
L 13.896 158.5512 
Q 13.896 163.5408 18.918 163.5408 
z
" clip-path="url(#p3a4183ccf0)" style="fill: #ffffff; stroke: #164c78; stroke-width: 2; stroke-linejoin: miter"/>
   </g>
   <g id="patch_3">
    <path d="M 90.9 112.314971 
Q 90.9 119.463527 90.9 125.49405 
" clip-path="url(#p3a4183ccf0)" style="fill: none; stroke: #164c78; stroke-linecap: round"/>
    <path d="M 93.3 120.69405 
L 90.9 125.49405 
L 88.5 120.69405 
z
" clip-path="url(#p3a4183ccf0)" style="fill: #164c78; stroke: #164c78; stroke-linecap: round"/>
   </g>
   <g id="text_1">
    <text style="fill: #164c78; font: 700 13px 'Arial', 'Microsoft YaHei'; text-anchor: middle" x="90.9" y="43.7904" transform="rotate(-0 90.9 43.7904)">UTR</text>
   </g>
   <g id="text_2">
    <text style="fill: #1d2939; font: 700 9px 'Arial', 'Microsoft YaHei'; text-anchor: middle" x="90.9" y="73.728" transform="rotate(-0 90.9 73.728)">均匀条件采样</text>
   </g>
   <g id="text_3">
    <g id="patch_4">
     <path d="M 72.9 106.94115 
L 108.9 106.94115 
Q 112.05 106.94115 112.05 103.79115 
L 112.05 95.018963 
Q 112.05 91.868963 108.9 91.868963 
L 72.9 91.868963 
Q 69.75 91.868963 69.75 95.018963 
L 69.75 103.79115 
Q 69.75 106.94115 72.9 106.94115 
z
" style="fill: #f2f5f8; stroke: #d0d5dd; stroke-linejoin: miter"/>
    </g>
    <text style="font: 9px 'Arial', 'Microsoft YaHei'; text-anchor: middle" x="90.9" y="102.0024" transform="rotate(-0 90.9 102.0024)">训练条件</text>
   </g>
   <g id="text_4">
    <g id="patch_5">
     <path d="M 74.646562 141.86835 
L 107.153437 141.86835 
Q 110.303437 141.86835 110.303437 138.71835 
L 110.303437 130.487569 
Q 110.303437 127.337569 107.153437 127.337569 
L 74.646562 127.337569 
Q 71.496562 127.337569 71.496562 130.487569 
L 71.496562 138.71835 
Q 71.496562 141.86835 74.646562 141.86835 
z
" style="fill: #ffffff; stroke: #164c78; stroke-linejoin: miter"/>
    </g>
    <text style="font: 9px 'Arial', 'Microsoft YaHei'; text-anchor: middle" x="90.9" y="136.9296" transform="rotate(-0 90.9 136.9296)">MAPPO</text>
   </g>
   <g id="text_5">
    <text style="fill: #667085; font: 8px 'Arial', 'Microsoft YaHei'" transform="translate(70.9 18.39585)">固定支持集</text>
    <text style="fill: #667085; font: 8px 'Arial', 'Microsoft YaHei'" transform="translate(66.9 27.47085)">无自适应信号</text>
   </g>
  </g>
  <g id="axes_2">
   <g id="patch_6">
    <path d="M 219.798 163.5408 
L 363.762 163.5408 
Q 368.784 163.5408 368.784 158.5512 
L 368.784 22.1688 
Q 368.784 17.1792 363.762 17.1792 
L 219.798 17.1792 
Q 214.776 17.1792 214.776 22.1688 
L 214.776 158.5512 
Q 214.776 163.5408 219.798 163.5408 
z
" clip-path="url(#pc51ce34703)" style="fill: #ffffff; stroke: #d97531; stroke-width: 2; stroke-linejoin: miter"/>
   </g>
   <g id="patch_7">
    <path d="M 291.78 112.314971 
Q 291.78 119.463527 291.78 125.49405 
" clip-path="url(#pc51ce34703)" style="fill: none; stroke: #d97531; stroke-linecap: round"/>
    <path d="M 294.18 120.69405 
L 291.78 125.49405 
L 289.38 120.69405 
z
" clip-path="url(#pc51ce34703)" style="fill: #d97531; stroke: #d97531; stroke-linecap: round"/>
   </g>
   <g id="text_6">
    <text style="fill: #d97531; font: 700 13px 'Arial', 'Microsoft YaHei'; text-anchor: middle" x="291.78" y="43.7904" transform="rotate(-0 291.78 43.7904)">PLR-style</text>
   </g>
   <g id="text_7">
    <text style="fill: #1d2939; font: 700 9px 'Arial', 'Microsoft YaHei'; text-anchor: middle" x="291.78" y="73.728" transform="rotate(-0 291.78 73.728)">通用优先分配</text>
   </g>
   <g id="text_8">
    <g id="patch_8">
     <path d="M 273.78 106.94115 
L 309.78 106.94115 
Q 312.93 106.94115 312.93 103.79115 
L 312.93 95.018963 
Q 312.93 91.868963 309.78 91.868963 
L 273.78 91.868963 
Q 270.63 91.868963 270.63 95.018963 
L 270.63 103.79115 
Q 270.63 106.94115 273.78 106.94115 
z
" style="fill: #f2f5f8; stroke: #d0d5dd; stroke-linejoin: miter"/>
    </g>
    <text style="font: 9px 'Arial', 'Microsoft YaHei'; text-anchor: middle" x="291.78" y="102.0024" transform="rotate(-0 291.78 102.0024)">训练条件</text>
   </g>
   <g id="text_9">
    <g id="patch_9">
     <path d="M 275.526563 141.86835 
L 308.033437 141.86835 
Q 311.183438 141.86835 311.183438 138.71835 
L 311.183438 130.487569 
Q 311.183438 127.337569 308.033437 127.337569 
L 275.526563 127.337569 
Q 272.376563 127.337569 272.376563 130.487569 
L 272.376563 138.71835 
Q 272.376563 141.86835 275.526563 141.86835 
z
" style="fill: #ffffff; stroke: #d97531; stroke-linejoin: miter"/>
    </g>
    <text style="font: 9px 'Arial', 'Microsoft YaHei'; text-anchor: middle" x="291.78" y="136.9296" transform="rotate(-0 291.78 136.9296)">MAPPO</text>
   </g>
   <g id="text_10">
    <text style="fill: #667085; font: 8px 'Arial', 'Microsoft YaHei'" transform="translate(267.553125 17.91585)">priority-driven</text>
    <text style="fill: #667085; font: 8px 'Arial', 'Microsoft YaHei'" transform="translate(275.78 27.0951)">条件重放</text>
   </g>
  </g>
  <g id="axes_3">
   <g id="patch_10">
    <path d="M 420.678 163.5408 
L 564.642 163.5408 
Q 569.664 163.5408 569.664 158.5512 
L 569.664 22.1688 
Q 569.664 17.1792 564.642 17.1792 
L 420.678 17.1792 
Q 415.656 17.1792 415.656 22.1688 
L 415.656 158.5512 
Q 415.656 163.5408 420.678 163.5408 
z
" clip-path="url(#p560c3212be)" style="fill: #ffffff; stroke: #087e8b; stroke-width: 2; stroke-linejoin: miter"/>
   </g>
   <g id="patch_11">
    <path d="M 492.66 112.314971 
Q 492.66 119.463527 492.66 125.49405 
" clip-path="url(#p560c3212be)" style="fill: none; stroke: #087e8b; stroke-linecap: round"/>
    <path d="M 495.06 120.69405 
L 492.66 125.49405 
L 490.26 120.69405 
z
" clip-path="url(#p560c3212be)" style="fill: #087e8b; stroke: #087e8b; stroke-linecap: round"/>
   </g>
   <g id="text_11">
    <text style="fill: #087e8b; font: 700 13px 'Arial', 'Microsoft YaHei'; text-anchor: middle" x="492.66" y="43.7904" transform="rotate(-0 492.66 43.7904)">DRTP</text>
   </g>
   <g id="text_12">
    <text style="fill: #1d2939; font: 700 9px 'Arial', 'Microsoft YaHei'; text-anchor: middle" x="492.66" y="73.728" transform="rotate(-0 492.66 73.728)">拓扑语义化分配</text>
   </g>
   <g id="text_13">
    <g id="patch_12">
     <path d="M 474.66 106.94115 
L 510.66 106.94115 
Q 513.81 106.94115 513.81 103.79115 
L 513.81 95.018963 
Q 513.81 91.868963 510.66 91.868963 
L 474.66 91.868963 
Q 471.51 91.868963 471.51 95.018963 
L 471.51 103.79115 
Q 471.51 106.94115 474.66 106.94115 
z
" style="fill: #f2f5f8; stroke: #d0d5dd; stroke-linejoin: miter"/>
    </g>
    <text style="font: 9px 'Arial', 'Microsoft YaHei'; text-anchor: middle" x="492.66" y="102.0024" transform="rotate(-0 492.66 102.0024)">训练条件</text>
   </g>
   <g id="text_14">
    <g id="patch_13">
     <path d="M 476.406563 141.86835 
L 508.913437 141.86835 
Q 512.063437 141.86835 512.063437 138.71835 
L 512.063437 130.487569 
Q 512.063437 127.337569 508.913437 127.337569 
L 476.406563 127.337569 
Q 473.256563 127.337569 473.256563 130.487569 
L 473.256563 138.71835 
Q 473.256563 141.86835 476.406563 141.86835 
z
" style="fill: #ffffff; stroke: #087e8b; stroke-linejoin: miter"/>
    </g>
    <text style="font: 9px 'Arial', 'Microsoft YaHei'; text-anchor: middle" x="492.66" y="136.9296" transform="rotate(-0 492.66 136.9296)">MAPPO</text>
   </g>
   <g id="text_15">
    <text style="fill: #667085; font: 8px 'Arial', 'Microsoft YaHei'" transform="translate(452.10125 18.42835)">名义锚点 + 组级困难度</text>
    <text style="fill: #667085; font: 8px 'Arial', 'Microsoft YaHei'" transform="translate(472.213125 28.05685)">有界 q 更新</text>
   </g>
  </g>
  <g id="text_16">
   <text style="fill: #667085; font: 9px 'Arial', 'Microsoft YaHei'; text-anchor: middle" x="282.6" y="195.12" transform="rotate(-0 282.6 195.12)">机制比较图不表达性能排名；三者在匹配实验中共享环境、网络、奖励、训练预算与 PPO。</text>
  </g>
 </g>
 <defs>
  <clipPath id="p3a4183ccf0">
   <rect x="7.2" y="7.2" width="167.4" height="166.32"/>
  </clipPath>
  <clipPath id="pc51ce34703">
   <rect x="208.08" y="7.2" width="167.4" height="166.32"/>
  </clipPath>
  <clipPath id="p560c3212be">
   <rect x="408.96" y="7.2" width="167.4" height="166.32"/>
  </clipPath>
 </defs>
</svg>
